<svg xmlns="http://www.w3.org/2000/svg" version="1.1" xmlns:xlink="http://www.w3.org/1999/xlink" xmlns:svgjs="http://svgjs.dev/svgjs" width="2000" height="2250" viewBox="0 0 2000 2250"><g transform="matrix(1,0,0,1,0.001312499999926331,0)"><svg viewBox="0 0 320 360" data-background-color="#ffffff" preserveAspectRatio="xMidYMid meet" height="2250" width="2000" xmlns="http://www.w3.org/2000/svg" xmlns:xlink="http://www.w3.org/1999/xlink"><g id="tight-bounds" transform="matrix(1,0,0,1,-0.00020999999998139174,0)"><svg viewBox="0 0 320 360" height="360" width="320"><rect width="320.00041999999996" height="360" fill="url(#ae85965b-6174-4124-9366-e64351123083)" mask="url(#f6a2a142-5a62-4d12-ac5d-1ad6efefad86)" data-fill-palette-color="tertiary"></rect><g><svg></svg></g><g><svg viewBox="0 0 320 360" height="360" width="320"><g><path transform="translate(-17.77778,2.22222) scale(3.55556,3.55556)" d="M95 52c0-12.871-5.692-24.431-14.682-32.318-7.887-8.99-19.447-14.682-32.318-14.682-23.71 0-43 19.29-43 43 0 12.868 5.69 24.426 14.677 32.313 7.887 8.993 19.449 14.687 32.323 14.687 0.084 0 0.166-0.006 0.25-0.006 0.084 0 0.166 0.006 0.25 0.006 23.472 0 42.5-19.028 42.5-42.5 0-0.084-0.006-0.166-0.006-0.25 0-0.084 0.006-0.166 0.006-0.25zM21.828 73.371c-4.245-5.978-6.77-13.259-6.822-21.121 0.135-20.511 16.732-37.109 37.244-37.244 7.862 0.052 15.144 2.577 21.121 6.822 6.853 6.645 11.129 15.93 11.129 26.172 0 20.126-16.374 36.5-36.5 36.5-10.242 0-19.527-4.276-26.172-11.129zM6 48c0-23.159 18.841-42 42-42 9.858 0 18.926 3.422 26.1 9.13-6.463-3.888-14.024-6.13-22.1-6.13-23.71 0-43 19.29-43 43 0 8.074 2.241 15.633 6.127 22.095-5.706-7.172-9.127-16.239-9.127-26.095zM52 89c-10.08 0-19.227-4.055-25.905-10.615 6.174 4.469 13.743 7.115 21.905 7.115 20.678 0 37.5-16.822 37.5-37.5 0-8.162-2.646-15.731-7.115-21.905 6.56 6.678 10.615 15.825 10.615 25.905 0 20.402-16.598 37-37 37z" fill="url(#ae85965b-6174-4124-9366-e64351123083)" fill-rule="nonzero" stroke="none" stroke-width="1" stroke-linecap="butt" stroke-linejoin="miter" stroke-miterlimit="10" stroke-dasharray="" stroke-dashoffset="0" font-family="none" font-weight="none" font-size="none" text-anchor="none" style="mix-blend-mode: normal" data-fill-palette-color="tertiary"></path></g><g transform="matrix(1,0,0,1,128.69810920209994,99)"><svg viewBox="0 0 62.60378159580009 162" height="162" width="62.60378159580009"><g><svg viewBox="0 0 62.60378159580009 162" height="162" width="62.60378159580009"><g><svg viewBox="0 0 124.72099087353324 322.74089530188803" height="162" width="62.60378159580009"><g transform="matrix(1,0,0,1,0,160.74089530188803)"><svg viewBox="0 0 124.72099087353324 162" height="162" width="124.72099087353324"><g id="textblocktransform"><svg viewBox="0 0 124.72099087353324 162" height="162" width="124.72099087353324" id="textblock"><g><svg viewBox="0 0 124.72099087353324 162" height="162" width="124.72099087353324"><g transform="matrix(1,0,0,1,0,0)"><svg width="124.72099087353324" viewBox="4.32 -36.11 28.83 37.45" height="162" data-palette-color="url(#49c9ddb9-a017-4dcc-88db-4f778e6ae11b)"></svg></g></svg></g></svg></g></svg></g><g transform="matrix(1,0,0,1,23.821709256844848,0)"><svg viewBox="0 0 77.07757235984354 122.49658330188802" height="122.49658330188802" width="77.07757235984354"><g><svg xmlns="http://www.w3.org/2000/svg" xmlns:xlink="http://www.w3.org/1999/xlink" version="1.1" x="0" y="0" viewBox="21.685 5 56.629999999999995 90" enable-background="new 0 0 100 100" xml:space="preserve" height="122.49658330188802" width="77.07757235984354" class="icon-icon-0" data-fill-palette-color="accent" id="icon-0"></svg></g></svg></g><g></g></svg></g></svg></g></svg></g></svg></g><defs></defs><mask id="331d99c9-bda1-441d-92a8-3401ccdf67d8"><g id="SvgjsG1016"><svg viewBox="0 0 320 360" height="360" width="320"><g><svg></svg></g><g><svg viewBox="0 0 320 360" height="360" width="320"><g><path transform="translate(-17.77778,2.22222) scale(3.55556,3.55556)" d="M95 52c0-12.871-5.692-24.431-14.682-32.318-7.887-8.99-19.447-14.682-32.318-14.682-23.71 0-43 19.29-43 43 0 12.868 5.69 24.426 14.677 32.313 7.887 8.993 19.449 14.687 32.323 14.687 0.084 0 0.166-0.006 0.25-0.006 0.084 0 0.166 0.006 0.25 0.006 23.472 0 42.5-19.028 42.5-42.5 0-0.084-0.006-0.166-0.006-0.25 0-0.084 0.006-0.166 0.006-0.25zM21.828 73.371c-4.245-5.978-6.77-13.259-6.822-21.121 0.135-20.511 16.732-37.109 37.244-37.244 7.862 0.052 15.144 2.577 21.121 6.822 6.853 6.645 11.129 15.93 11.129 26.172 0 20.126-16.374 36.5-36.5 36.5-10.242 0-19.527-4.276-26.172-11.129zM6 48c0-23.159 18.841-42 42-42 9.858 0 18.926 3.422 26.1 9.13-6.463-3.888-14.024-6.13-22.1-6.13-23.71 0-43 19.29-43 43 0 8.074 2.241 15.633 6.127 22.095-5.706-7.172-9.127-16.239-9.127-26.095zM52 89c-10.08 0-19.227-4.055-25.905-10.615 6.174 4.469 13.743 7.115 21.905 7.115 20.678 0 37.5-16.822 37.5-37.5 0-8.162-2.646-15.731-7.115-21.905 6.56 6.678 10.615 15.825 10.615 25.905 0 20.402-16.598 37-37 37z" fill="black" fill-rule="nonzero" stroke="none" stroke-width="1" stroke-linecap="butt" stroke-linejoin="miter" stroke-miterlimit="10" stroke-dasharray="" stroke-dashoffset="0" font-family="none" font-weight="none" font-size="none" text-anchor="none" style="mix-blend-mode: normal"></path></g><g transform="matrix(1,0,0,1,128.69810920209994,99)"><svg viewBox="0 0 62.60378159580009 162" height="162" width="62.60378159580009"><g><svg viewBox="0 0 62.60378159580009 162" height="162" width="62.60378159580009"><g><svg viewBox="0 0 124.72099087353324 322.74089530188803" height="162" width="62.60378159580009"><g transform="matrix(1,0,0,1,0,160.74089530188803)"><svg viewBox="0 0 124.72099087353324 162" height="162" width="124.72099087353324"><g id="SvgjsG1015"><svg viewBox="0 0 124.72099087353324 162" height="162" width="124.72099087353324" id="SvgjsSvg1014"><g><svg viewBox="0 0 124.72099087353324 162" height="162" width="124.72099087353324"><g transform="matrix(1,0,0,1,0,0)"><svg width="124.72099087353324" viewBox="4.32 -36.11 28.83 37.45" height="162" data-palette-color="url(#49c9ddb9-a017-4dcc-88db-4f778e6ae11b)"><path d="M6.52-19.48L6.52-3.49 6.59-1.05Q6.59-0.42 6.25-0.07 5.91 0.27 5.43 0.27 4.96 0.27 4.64-0.05 4.32-0.37 4.32-0.74 4.32-1.12 4.38-1.45 4.44-1.78 4.49-2.2L4.49-2.2Q4.61-2.91 4.61-5.74L4.61-5.74 4.61-36.11 31.15-15.06 31.15-29.61Q31.15-31.27 31.05-31.98L31.05-31.98Q30.93-33.13 30.93-33.59L30.93-33.59Q30.93-34.81 31.98-34.81L31.98-34.81Q32.4-34.81 32.78-34.52 33.15-34.23 33.15-33.67L33.15-33.67 33.15-32.81 33.06-29.27 33.06 1.34 6.52-19.48Z" opacity="1" transform="matrix(1,0,0,1,0,0)" fill="white" class="wordmark-text-0" id="SvgjsPath1013"></path></svg></g></svg></g></svg></g></svg></g><g transform="matrix(1,0,0,1,23.821709256844848,0)"><svg viewBox="0 0 77.07757235984354 122.49658330188802" height="122.49658330188802" width="77.07757235984354"><g><svg xmlns="http://www.w3.org/2000/svg" xmlns:xlink="http://www.w3.org/1999/xlink" version="1.1" x="0" y="0" viewBox="21.685 5 56.629999999999995 90" enable-background="new 0 0 100 100" xml:space="preserve" height="122.49658330188802" width="77.07757235984354" class="icon-icon-0" data-fill-palette-color="accent" id="SvgjsSvg1012"><path d="M50 5C34.362 5 21.685 17.677 21.685 33.315c0 4.49 1.045 8.735 2.905 12.507l0.279 0.583L49.995 95l24.913-48.184 0.14-0.286c2.086-3.945 3.267-8.443 3.267-13.216C78.315 17.677 65.638 5 50 5zM57.085 41.688v3.272H42.904v-3.272h5.561v-5.528L37.4 22.682h25.2L51.523 36.175v5.512H57.085z" fill="black"></path></svg></g></svg></g><g></g></svg></g></svg></g></svg></g></svg></g><defs><mask></mask></defs></svg><rect width="320" height="360" fill="black" stroke="none" visibility="hidden"></rect></g></mask><linearGradient x1="0" x2="1" y1="0.548" y2="0.55" id="49c9ddb9-a017-4dcc-88db-4f778e6ae11b"><stop stop-color="#ff6cab" offset="0"></stop><stop stop-color="#7366ff" offset="1"></stop></linearGradient><rect width="320.00041999999996" height="360" fill="url(#49c9ddb9-a017-4dcc-88db-4f778e6ae11b)" mask="url(#331d99c9-bda1-441d-92a8-3401ccdf67d8)" data-fill-palette-color="primary"></rect><mask id="6cddbc21-af31-4df2-a534-7a1b4f53b659"><g id="SvgjsG1025"><svg viewBox="0 0 320 360" height="360" width="320"><g><svg></svg></g><g><svg viewBox="0 0 320 360" height="360" width="320"><g><path transform="translate(-17.77778,2.22222) scale(3.55556,3.55556)" d="M95 52c0-12.871-5.692-24.431-14.682-32.318-7.887-8.99-19.447-14.682-32.318-14.682-23.71 0-43 19.29-43 43 0 12.868 5.69 24.426 14.677 32.313 7.887 8.993 19.449 14.687 32.323 14.687 0.084 0 0.166-0.006 0.25-0.006 0.084 0 0.166 0.006 0.25 0.006 23.472 0 42.5-19.028 42.5-42.5 0-0.084-0.006-0.166-0.006-0.25 0-0.084 0.006-0.166 0.006-0.25zM21.828 73.371c-4.245-5.978-6.77-13.259-6.822-21.121 0.135-20.511 16.732-37.109 37.244-37.244 7.862 0.052 15.144 2.577 21.121 6.822 6.853 6.645 11.129 15.93 11.129 26.172 0 20.126-16.374 36.5-36.5 36.5-10.242 0-19.527-4.276-26.172-11.129zM6 48c0-23.159 18.841-42 42-42 9.858 0 18.926 3.422 26.1 9.13-6.463-3.888-14.024-6.13-22.1-6.13-23.71 0-43 19.29-43 43 0 8.074 2.241 15.633 6.127 22.095-5.706-7.172-9.127-16.239-9.127-26.095zM52 89c-10.08 0-19.227-4.055-25.905-10.615 6.174 4.469 13.743 7.115 21.905 7.115 20.678 0 37.5-16.822 37.5-37.5 0-8.162-2.646-15.731-7.115-21.905 6.56 6.678 10.615 15.825 10.615 25.905 0 20.402-16.598 37-37 37z" fill="black" fill-rule="nonzero" stroke="none" stroke-width="1" stroke-linecap="butt" stroke-linejoin="miter" stroke-miterlimit="10" stroke-dasharray="" stroke-dashoffset="0" font-family="none" font-weight="none" font-size="none" text-anchor="none" style="mix-blend-mode: normal"></path></g><g transform="matrix(1,0,0,1,128.69810920209994,99)"><svg viewBox="0 0 62.60378159580009 162" height="162" width="62.60378159580009"><g><svg viewBox="0 0 62.60378159580009 162" height="162" width="62.60378159580009"><g><svg viewBox="0 0 124.72099087353324 322.74089530188803" height="162" width="62.60378159580009"><g transform="matrix(1,0,0,1,0,160.74089530188803)"><svg viewBox="0 0 124.72099087353324 162" height="162" width="124.72099087353324"><g id="SvgjsG1024"><svg viewBox="0 0 124.72099087353324 162" height="162" width="124.72099087353324" id="SvgjsSvg1023"><g><svg viewBox="0 0 124.72099087353324 162" height="162" width="124.72099087353324"><g transform="matrix(1,0,0,1,0,0)"><svg width="124.72099087353324" viewBox="4.32 -36.11 28.83 37.45" height="162" data-palette-color="url(#49c9ddb9-a017-4dcc-88db-4f778e6ae11b)"></svg></g></svg></g></svg></g></svg></g><g transform="matrix(1,0,0,1,23.821709256844848,0)"><svg viewBox="0 0 77.07757235984354 122.49658330188802" height="122.49658330188802" width="77.07757235984354"><g><svg xmlns="http://www.w3.org/2000/svg" xmlns:xlink="http://www.w3.org/1999/xlink" version="1.1" x="0" y="0" viewBox="21.685 5 56.629999999999995 90" enable-background="new 0 0 100 100" xml:space="preserve" height="122.49658330188802" width="77.07757235984354" class="icon-icon-0" data-fill-palette-color="accent" id="SvgjsSvg1022"><path d="M50 5C34.362 5 21.685 17.677 21.685 33.315c0 4.49 1.045 8.735 2.905 12.507l0.279 0.583L49.995 95l24.913-48.184 0.14-0.286c2.086-3.945 3.267-8.443 3.267-13.216C78.315 17.677 65.638 5 50 5zM57.085 41.688v3.272H42.904v-3.272h5.561v-5.528L37.4 22.682h25.2L51.523 36.175v5.512H57.085z" fill="white"></path></svg></g></svg></g><g></g></svg></g></svg></g></svg></g></svg></g><defs><mask></mask></defs><mask><g id="SvgjsG1021"><svg viewBox="0 0 320 360" height="360" width="320"><g><svg></svg></g><g><svg viewBox="0 0 320 360" height="360" width="320"><g><path transform="translate(-17.77778,2.22222) scale(3.55556,3.55556)" d="M95 52c0-12.871-5.692-24.431-14.682-32.318-7.887-8.99-19.447-14.682-32.318-14.682-23.71 0-43 19.29-43 43 0 12.868 5.69 24.426 14.677 32.313 7.887 8.993 19.449 14.687 32.323 14.687 0.084 0 0.166-0.006 0.25-0.006 0.084 0 0.166 0.006 0.25 0.006 23.472 0 42.5-19.028 42.5-42.5 0-0.084-0.006-0.166-0.006-0.25 0-0.084 0.006-0.166 0.006-0.25zM21.828 73.371c-4.245-5.978-6.77-13.259-6.822-21.121 0.135-20.511 16.732-37.109 37.244-37.244 7.862 0.052 15.144 2.577 21.121 6.822 6.853 6.645 11.129 15.93 11.129 26.172 0 20.126-16.374 36.5-36.5 36.5-10.242 0-19.527-4.276-26.172-11.129zM6 48c0-23.159 18.841-42 42-42 9.858 0 18.926 3.422 26.1 9.13-6.463-3.888-14.024-6.13-22.1-6.13-23.71 0-43 19.29-43 43 0 8.074 2.241 15.633 6.127 22.095-5.706-7.172-9.127-16.239-9.127-26.095zM52 89c-10.08 0-19.227-4.055-25.905-10.615 6.174 4.469 13.743 7.115 21.905 7.115 20.678 0 37.5-16.822 37.5-37.5 0-8.162-2.646-15.731-7.115-21.905 6.56 6.678 10.615 15.825 10.615 25.905 0 20.402-16.598 37-37 37z" fill="black" fill-rule="nonzero" stroke="none" stroke-width="1" stroke-linecap="butt" stroke-linejoin="miter" stroke-miterlimit="10" stroke-dasharray="" stroke-dashoffset="0" font-family="none" font-weight="none" font-size="none" text-anchor="none" style="mix-blend-mode: normal"></path></g><g transform="matrix(1,0,0,1,128.69810920209994,99)"><svg viewBox="0 0 62.60378159580009 162" height="162" width="62.60378159580009"><g><svg viewBox="0 0 62.60378159580009 162" height="162" width="62.60378159580009"><g><svg viewBox="0 0 124.72099087353324 322.74089530188803" height="162" width="62.60378159580009"><g transform="matrix(1,0,0,1,0,160.74089530188803)"><svg viewBox="0 0 124.72099087353324 162" height="162" width="124.72099087353324"><g id="SvgjsG1020"><svg viewBox="0 0 124.72099087353324 162" height="162" width="124.72099087353324" id="SvgjsSvg1019"><g><svg viewBox="0 0 124.72099087353324 162" height="162" width="124.72099087353324"><g transform="matrix(1,0,0,1,0,0)"><svg width="124.72099087353324" viewBox="4.32 -36.11 28.83 37.45" height="162" data-palette-color="url(#49c9ddb9-a017-4dcc-88db-4f778e6ae11b)"><path d="M6.52-19.48L6.52-3.49 6.59-1.05Q6.59-0.42 6.25-0.07 5.91 0.27 5.43 0.27 4.96 0.27 4.64-0.05 4.32-0.37 4.32-0.74 4.32-1.12 4.38-1.45 4.44-1.78 4.49-2.2L4.49-2.2Q4.61-2.91 4.61-5.74L4.61-5.74 4.61-36.11 31.15-15.06 31.15-29.61Q31.15-31.27 31.05-31.98L31.05-31.98Q30.93-33.13 30.93-33.59L30.93-33.59Q30.93-34.81 31.98-34.81L31.98-34.81Q32.4-34.81 32.78-34.52 33.15-34.23 33.15-33.67L33.15-33.67 33.15-32.81 33.06-29.27 33.06 1.34 6.52-19.48Z" opacity="1" transform="matrix(1,0,0,1,0,0)" fill="black" class="wordmark-text-0" id="SvgjsPath1018"></path></svg></g></svg></g></svg></g></svg></g><g transform="matrix(1,0,0,1,23.821709256844848,0)"><svg viewBox="0 0 77.07757235984354 122.49658330188802" height="122.49658330188802" width="77.07757235984354"><g><svg xmlns="http://www.w3.org/2000/svg" xmlns:xlink="http://www.w3.org/1999/xlink" version="1.1" x="0" y="0" viewBox="21.685 5 56.629999999999995 90" enable-background="new 0 0 100 100" xml:space="preserve" height="122.49658330188802" width="77.07757235984354" class="icon-icon-0" data-fill-palette-color="accent" id="SvgjsSvg1017"><path d="M50 5C34.362 5 21.685 17.677 21.685 33.315c0 4.49 1.045 8.735 2.905 12.507l0.279 0.583L49.995 95l24.913-48.184 0.14-0.286c2.086-3.945 3.267-8.443 3.267-13.216C78.315 17.677 65.638 5 50 5zM57.085 41.688v3.272H42.904v-3.272h5.561v-5.528L37.4 22.682h25.2L51.523 36.175v5.512H57.085z" fill="black"></path></svg></g></svg></g><g></g></svg></g></svg></g></svg></g></svg></g><defs><mask></mask></defs></svg><rect width="320" height="360" fill="black" stroke="none" visibility="hidden"></rect></g></mask></svg><rect width="320" height="360" fill="black" stroke="none" visibility="hidden"></rect></g></mask><linearGradient x1="0" x2="1" y1="0.548" y2="0.55" id="dd7839e6-d119-496b-a059-5dc698e414bd"><stop stop-color="#ff6cab" offset="0"></stop><stop stop-color="#7366ff" offset="1"></stop></linearGradient><rect width="320.00041999999996" height="360" fill="url(#dd7839e6-d119-496b-a059-5dc698e414bd)" mask="url(#6cddbc21-af31-4df2-a534-7a1b4f53b659)" data-fill-palette-color="accent"></rect><mask id="f6a2a142-5a62-4d12-ac5d-1ad6efefad86"><g id="SvgjsG1043"><svg viewBox="0 0 320 360" height="360" width="320"><g><svg></svg></g><g><svg viewBox="0 0 320 360" height="360" width="320"><g><path transform="translate(-17.77778,2.22222) scale(3.55556,3.55556)" d="M95 52c0-12.871-5.692-24.431-14.682-32.318-7.887-8.99-19.447-14.682-32.318-14.682-23.71 0-43 19.29-43 43 0 12.868 5.69 24.426 14.677 32.313 7.887 8.993 19.449 14.687 32.323 14.687 0.084 0 0.166-0.006 0.25-0.006 0.084 0 0.166 0.006 0.25 0.006 23.472 0 42.5-19.028 42.5-42.5 0-0.084-0.006-0.166-0.006-0.25 0-0.084 0.006-0.166 0.006-0.25zM21.828 73.371c-4.245-5.978-6.77-13.259-6.822-21.121 0.135-20.511 16.732-37.109 37.244-37.244 7.862 0.052 15.144 2.577 21.121 6.822 6.853 6.645 11.129 15.93 11.129 26.172 0 20.126-16.374 36.5-36.5 36.5-10.242 0-19.527-4.276-26.172-11.129zM6 48c0-23.159 18.841-42 42-42 9.858 0 18.926 3.422 26.1 9.13-6.463-3.888-14.024-6.13-22.1-6.13-23.71 0-43 19.29-43 43 0 8.074 2.241 15.633 6.127 22.095-5.706-7.172-9.127-16.239-9.127-26.095zM52 89c-10.08 0-19.227-4.055-25.905-10.615 6.174 4.469 13.743 7.115 21.905 7.115 20.678 0 37.5-16.822 37.5-37.5 0-8.162-2.646-15.731-7.115-21.905 6.56 6.678 10.615 15.825 10.615 25.905 0 20.402-16.598 37-37 37z" fill="white" fill-rule="nonzero" stroke="none" stroke-width="1" stroke-linecap="butt" stroke-linejoin="miter" stroke-miterlimit="10" stroke-dasharray="" stroke-dashoffset="0" font-family="none" font-weight="none" font-size="none" text-anchor="none" style="mix-blend-mode: normal"></path></g><g transform="matrix(1,0,0,1,128.69810920209994,99)"><svg viewBox="0 0 62.60378159580009 162" height="162" width="62.60378159580009"><g><svg viewBox="0 0 62.60378159580009 162" height="162" width="62.60378159580009"><g><svg viewBox="0 0 124.72099087353324 322.74089530188803" height="162" width="62.60378159580009"><g transform="matrix(1,0,0,1,0,160.74089530188803)"><svg viewBox="0 0 124.72099087353324 162" height="162" width="124.72099087353324"><g id="SvgjsG1042"><svg viewBox="0 0 124.72099087353324 162" height="162" width="124.72099087353324" id="SvgjsSvg1041"><g><svg viewBox="0 0 124.72099087353324 162" height="162" width="124.72099087353324"><g transform="matrix(1,0,0,1,0,0)"><svg width="124.72099087353324" viewBox="4.32 -36.11 28.83 37.45" height="162" data-palette-color="url(#49c9ddb9-a017-4dcc-88db-4f778e6ae11b)"></svg></g></svg></g></svg></g></svg></g><g transform="matrix(1,0,0,1,23.821709256844848,0)"><svg viewBox="0 0 77.07757235984354 122.49658330188802" height="122.49658330188802" width="77.07757235984354"><g><svg xmlns="http://www.w3.org/2000/svg" xmlns:xlink="http://www.w3.org/1999/xlink" version="1.1" x="0" y="0" viewBox="21.685 5 56.629999999999995 90" enable-background="new 0 0 100 100" xml:space="preserve" height="122.49658330188802" width="77.07757235984354" class="icon-icon-0" data-fill-palette-color="accent" id="SvgjsSvg1040"></svg></g></svg></g><g></g></svg></g></svg></g></svg></g></svg></g><defs><mask></mask></defs><mask><g id="SvgjsG1039"><svg viewBox="0 0 320 360" height="360" width="320"><g><svg></svg></g><g><svg viewBox="0 0 320 360" height="360" width="320"><g><path transform="translate(-17.77778,2.22222) scale(3.55556,3.55556)" d="M95 52c0-12.871-5.692-24.431-14.682-32.318-7.887-8.99-19.447-14.682-32.318-14.682-23.71 0-43 19.29-43 43 0 12.868 5.69 24.426 14.677 32.313 7.887 8.993 19.449 14.687 32.323 14.687 0.084 0 0.166-0.006 0.25-0.006 0.084 0 0.166 0.006 0.25 0.006 23.472 0 42.5-19.028 42.5-42.5 0-0.084-0.006-0.166-0.006-0.25 0-0.084 0.006-0.166 0.006-0.25zM21.828 73.371c-4.245-5.978-6.77-13.259-6.822-21.121 0.135-20.511 16.732-37.109 37.244-37.244 7.862 0.052 15.144 2.577 21.121 6.822 6.853 6.645 11.129 15.93 11.129 26.172 0 20.126-16.374 36.5-36.5 36.5-10.242 0-19.527-4.276-26.172-11.129zM6 48c0-23.159 18.841-42 42-42 9.858 0 18.926 3.422 26.1 9.13-6.463-3.888-14.024-6.13-22.1-6.13-23.71 0-43 19.29-43 43 0 8.074 2.241 15.633 6.127 22.095-5.706-7.172-9.127-16.239-9.127-26.095zM52 89c-10.08 0-19.227-4.055-25.905-10.615 6.174 4.469 13.743 7.115 21.905 7.115 20.678 0 37.5-16.822 37.5-37.5 0-8.162-2.646-15.731-7.115-21.905 6.56 6.678 10.615 15.825 10.615 25.905 0 20.402-16.598 37-37 37z" fill="black" fill-rule="nonzero" stroke="none" stroke-width="1" stroke-linecap="butt" stroke-linejoin="miter" stroke-miterlimit="10" stroke-dasharray="" stroke-dashoffset="0" font-family="none" font-weight="none" font-size="none" text-anchor="none" style="mix-blend-mode: normal"></path></g><g transform="matrix(1,0,0,1,128.69810920209994,99)"><svg viewBox="0 0 62.60378159580009 162" height="162" width="62.60378159580009"><g><svg viewBox="0 0 62.60378159580009 162" height="162" width="62.60378159580009"><g><svg viewBox="0 0 124.72099087353324 322.74089530188803" height="162" width="62.60378159580009"><g transform="matrix(1,0,0,1,0,160.74089530188803)"><svg viewBox="0 0 124.72099087353324 162" height="162" width="124.72099087353324"><g id="SvgjsG1038"><svg viewBox="0 0 124.72099087353324 162" height="162" width="124.72099087353324" id="SvgjsSvg1037"><g><svg viewBox="0 0 124.72099087353324 162" height="162" width="124.72099087353324"><g transform="matrix(1,0,0,1,0,0)"><svg width="124.72099087353324" viewBox="4.32 -36.11 28.83 37.45" height="162" data-palette-color="url(#49c9ddb9-a017-4dcc-88db-4f778e6ae11b)"><path d="M6.52-19.48L6.52-3.49 6.59-1.05Q6.59-0.42 6.25-0.07 5.91 0.27 5.43 0.27 4.96 0.27 4.64-0.05 4.32-0.37 4.32-0.74 4.32-1.12 4.38-1.45 4.44-1.78 4.49-2.2L4.49-2.2Q4.61-2.91 4.61-5.74L4.61-5.74 4.61-36.11 31.15-15.06 31.15-29.61Q31.15-31.27 31.05-31.98L31.05-31.98Q30.93-33.13 30.93-33.59L30.93-33.59Q30.93-34.81 31.98-34.81L31.98-34.81Q32.4-34.81 32.78-34.52 33.15-34.23 33.15-33.67L33.15-33.67 33.15-32.81 33.06-29.27 33.06 1.34 6.52-19.48Z" opacity="1" transform="matrix(1,0,0,1,0,0)" fill="black" class="wordmark-text-0" id="SvgjsPath1036"></path></svg></g></svg></g></svg></g></svg></g><g transform="matrix(1,0,0,1,23.821709256844848,0)"><svg viewBox="0 0 77.07757235984354 122.49658330188802" height="122.49658330188802" width="77.07757235984354"><g><svg xmlns="http://www.w3.org/2000/svg" xmlns:xlink="http://www.w3.org/1999/xlink" version="1.1" x="0" y="0" viewBox="21.685 5 56.629999999999995 90" enable-background="new 0 0 100 100" xml:space="preserve" height="122.49658330188802" width="77.07757235984354" class="icon-icon-0" data-fill-palette-color="accent" id="SvgjsSvg1035"><path d="M50 5C34.362 5 21.685 17.677 21.685 33.315c0 4.49 1.045 8.735 2.905 12.507l0.279 0.583L49.995 95l24.913-48.184 0.14-0.286c2.086-3.945 3.267-8.443 3.267-13.216C78.315 17.677 65.638 5 50 5zM57.085 41.688v3.272H42.904v-3.272h5.561v-5.528L37.4 22.682h25.2L51.523 36.175v5.512H57.085z" fill="black"></path></svg></g></svg></g><g></g></svg></g></svg></g></svg></g></svg></g><defs><mask></mask></defs></svg><rect width="320" height="360" fill="black" stroke="none" visibility="hidden"></rect></g></mask><mask><g id="SvgjsG1034"><svg viewBox="0 0 320 360" height="360" width="320"><g><svg></svg></g><g><svg viewBox="0 0 320 360" height="360" width="320"><g><path transform="translate(-17.77778,2.22222) scale(3.55556,3.55556)" d="M95 52c0-12.871-5.692-24.431-14.682-32.318-7.887-8.99-19.447-14.682-32.318-14.682-23.71 0-43 19.29-43 43 0 12.868 5.69 24.426 14.677 32.313 7.887 8.993 19.449 14.687 32.323 14.687 0.084 0 0.166-0.006 0.25-0.006 0.084 0 0.166 0.006 0.25 0.006 23.472 0 42.5-19.028 42.5-42.5 0-0.084-0.006-0.166-0.006-0.25 0-0.084 0.006-0.166 0.006-0.25zM21.828 73.371c-4.245-5.978-6.77-13.259-6.822-21.121 0.135-20.511 16.732-37.109 37.244-37.244 7.862 0.052 15.144 2.577 21.121 6.822 6.853 6.645 11.129 15.93 11.129 26.172 0 20.126-16.374 36.5-36.5 36.5-10.242 0-19.527-4.276-26.172-11.129zM6 48c0-23.159 18.841-42 42-42 9.858 0 18.926 3.422 26.1 9.13-6.463-3.888-14.024-6.13-22.1-6.13-23.71 0-43 19.29-43 43 0 8.074 2.241 15.633 6.127 22.095-5.706-7.172-9.127-16.239-9.127-26.095zM52 89c-10.08 0-19.227-4.055-25.905-10.615 6.174 4.469 13.743 7.115 21.905 7.115 20.678 0 37.5-16.822 37.5-37.5 0-8.162-2.646-15.731-7.115-21.905 6.56 6.678 10.615 15.825 10.615 25.905 0 20.402-16.598 37-37 37z" fill="black" fill-rule="nonzero" stroke="none" stroke-width="1" stroke-linecap="butt" stroke-linejoin="miter" stroke-miterlimit="10" stroke-dasharray="" stroke-dashoffset="0" font-family="none" font-weight="none" font-size="none" text-anchor="none" style="mix-blend-mode: normal"></path></g><g transform="matrix(1,0,0,1,128.69810920209994,99)"><svg viewBox="0 0 62.60378159580009 162" height="162" width="62.60378159580009"><g><svg viewBox="0 0 62.60378159580009 162" height="162" width="62.60378159580009"><g><svg viewBox="0 0 124.72099087353324 322.74089530188803" height="162" width="62.60378159580009"><g transform="matrix(1,0,0,1,0,160.74089530188803)"><svg viewBox="0 0 124.72099087353324 162" height="162" width="124.72099087353324"><g id="SvgjsG1033"><svg viewBox="0 0 124.72099087353324 162" height="162" width="124.72099087353324" id="SvgjsSvg1032"><g><svg viewBox="0 0 124.72099087353324 162" height="162" width="124.72099087353324"><g transform="matrix(1,0,0,1,0,0)"><svg width="124.72099087353324" viewBox="4.32 -36.11 28.83 37.45" height="162" data-palette-color="url(#49c9ddb9-a017-4dcc-88db-4f778e6ae11b)"></svg></g></svg></g></svg></g></svg></g><g transform="matrix(1,0,0,1,23.821709256844848,0)"><svg viewBox="0 0 77.07757235984354 122.49658330188802" height="122.49658330188802" width="77.07757235984354"><g><svg xmlns="http://www.w3.org/2000/svg" xmlns:xlink="http://www.w3.org/1999/xlink" version="1.1" x="0" y="0" viewBox="21.685 5 56.629999999999995 90" enable-background="new 0 0 100 100" xml:space="preserve" height="122.49658330188802" width="77.07757235984354" class="icon-icon-0" data-fill-palette-color="accent" id="SvgjsSvg1031"><path d="M50 5C34.362 5 21.685 17.677 21.685 33.315c0 4.49 1.045 8.735 2.905 12.507l0.279 0.583L49.995 95l24.913-48.184 0.14-0.286c2.086-3.945 3.267-8.443 3.267-13.216C78.315 17.677 65.638 5 50 5zM57.085 41.688v3.272H42.904v-3.272h5.561v-5.528L37.4 22.682h25.2L51.523 36.175v5.512H57.085z" fill="black"></path></svg></g></svg></g><g></g></svg></g></svg></g></svg></g></svg></g><defs><mask></mask></defs><mask><g id="SvgjsG1030"><svg viewBox="0 0 320 360" height="360" width="320"><g><svg></svg></g><g><svg viewBox="0 0 320 360" height="360" width="320"><g><path transform="translate(-17.77778,2.22222) scale(3.55556,3.55556)" d="M95 52c0-12.871-5.692-24.431-14.682-32.318-7.887-8.99-19.447-14.682-32.318-14.682-23.71 0-43 19.29-43 43 0 12.868 5.69 24.426 14.677 32.313 7.887 8.993 19.449 14.687 32.323 14.687 0.084 0 0.166-0.006 0.25-0.006 0.084 0 0.166 0.006 0.25 0.006 23.472 0 42.5-19.028 42.5-42.5 0-0.084-0.006-0.166-0.006-0.25 0-0.084 0.006-0.166 0.006-0.25zM21.828 73.371c-4.245-5.978-6.77-13.259-6.822-21.121 0.135-20.511 16.732-37.109 37.244-37.244 7.862 0.052 15.144 2.577 21.121 6.822 6.853 6.645 11.129 15.93 11.129 26.172 0 20.126-16.374 36.5-36.5 36.5-10.242 0-19.527-4.276-26.172-11.129zM6 48c0-23.159 18.841-42 42-42 9.858 0 18.926 3.422 26.1 9.13-6.463-3.888-14.024-6.13-22.1-6.13-23.71 0-43 19.29-43 43 0 8.074 2.241 15.633 6.127 22.095-5.706-7.172-9.127-16.239-9.127-26.095zM52 89c-10.08 0-19.227-4.055-25.905-10.615 6.174 4.469 13.743 7.115 21.905 7.115 20.678 0 37.5-16.822 37.5-37.5 0-8.162-2.646-15.731-7.115-21.905 6.56 6.678 10.615 15.825 10.615 25.905 0 20.402-16.598 37-37 37z" fill="black" fill-rule="nonzero" stroke="none" stroke-width="1" stroke-linecap="butt" stroke-linejoin="miter" stroke-miterlimit="10" stroke-dasharray="" stroke-dashoffset="0" font-family="none" font-weight="none" font-size="none" text-anchor="none" style="mix-blend-mode: normal"></path></g><g transform="matrix(1,0,0,1,128.69810920209994,99)"><svg viewBox="0 0 62.60378159580009 162" height="162" width="62.60378159580009"><g><svg viewBox="0 0 62.60378159580009 162" height="162" width="62.60378159580009"><g><svg viewBox="0 0 124.72099087353324 322.74089530188803" height="162" width="62.60378159580009"><g transform="matrix(1,0,0,1,0,160.74089530188803)"><svg viewBox="0 0 124.72099087353324 162" height="162" width="124.72099087353324"><g id="SvgjsG1029"><svg viewBox="0 0 124.72099087353324 162" height="162" width="124.72099087353324" id="SvgjsSvg1028"><g><svg viewBox="0 0 124.72099087353324 162" height="162" width="124.72099087353324"><g transform="matrix(1,0,0,1,0,0)"><svg width="124.72099087353324" viewBox="4.32 -36.11 28.83 37.45" height="162" data-palette-color="url(#49c9ddb9-a017-4dcc-88db-4f778e6ae11b)"><path d="M6.52-19.48L6.52-3.49 6.59-1.05Q6.59-0.42 6.25-0.07 5.91 0.27 5.43 0.27 4.96 0.27 4.64-0.05 4.32-0.37 4.32-0.74 4.32-1.12 4.38-1.45 4.44-1.78 4.49-2.2L4.49-2.2Q4.61-2.91 4.61-5.74L4.61-5.74 4.61-36.11 31.15-15.06 31.15-29.61Q31.15-31.27 31.05-31.98L31.05-31.98Q30.93-33.13 30.93-33.59L30.93-33.59Q30.93-34.81 31.98-34.81L31.98-34.81Q32.4-34.81 32.78-34.52 33.15-34.23 33.15-33.67L33.15-33.67 33.15-32.81 33.06-29.27 33.06 1.34 6.52-19.48Z" opacity="1" transform="matrix(1,0,0,1,0,0)" fill="black" class="wordmark-text-0" id="SvgjsPath1027"></path></svg></g></svg></g></svg></g></svg></g><g transform="matrix(1,0,0,1,23.821709256844848,0)"><svg viewBox="0 0 77.07757235984354 122.49658330188802" height="122.49658330188802" width="77.07757235984354"><g><svg xmlns="http://www.w3.org/2000/svg" xmlns:xlink="http://www.w3.org/1999/xlink" version="1.1" x="0" y="0" viewBox="21.685 5 56.629999999999995 90" enable-background="new 0 0 100 100" xml:space="preserve" height="122.49658330188802" width="77.07757235984354" class="icon-icon-0" data-fill-palette-color="accent" id="SvgjsSvg1026"><path d="M50 5C34.362 5 21.685 17.677 21.685 33.315c0 4.49 1.045 8.735 2.905 12.507l0.279 0.583L49.995 95l24.913-48.184 0.14-0.286c2.086-3.945 3.267-8.443 3.267-13.216C78.315 17.677 65.638 5 50 5zM57.085 41.688v3.272H42.904v-3.272h5.561v-5.528L37.4 22.682h25.2L51.523 36.175v5.512H57.085z" fill="black"></path></svg></g></svg></g><g></g></svg></g></svg></g></svg></g></svg></g><defs><mask></mask></defs></svg><rect width="320" height="360" fill="black" stroke="none" visibility="hidden"></rect></g></mask></svg><rect width="320" height="360" fill="black" stroke="none" visibility="hidden"></rect></g></mask></svg><rect width="320" height="360" fill="black" stroke="none" visibility="hidden"></rect></g></mask><linearGradient x1="0" x2="1" y1="0.548" y2="0.55" id="ae85965b-6174-4124-9366-e64351123083"><stop stop-color="#ff6cab" offset="0"></stop><stop stop-color="#7366ff" offset="1"></stop></linearGradient></svg><rect width="320" height="360" fill="none" stroke="none" visibility="hidden"></rect></g></svg></g></svg>